<svg xmlns="http://www.w3.org/2000/svg" xmlns:xlink="http://www.w3.org/1999/xlink" viewBox="0 0 160 160"><defs><path id="a" d="M60 17V8H44v9h-8V0h32v17h-8z"/><path id="b" d="M4 20h96v64H4z"/><path id="c" d="M0 12h104v40H0z"/><path id="d" d="M44 44h16v4H44z"/><path id="e" d="M76 44h8v16h-8z"/><path id="f" d="M20 44h8v16h-8z"/><path id="g" d="M20 56h8v4h-8z"/><path id="h" d="M76 56h8v4h-8z"/><path id="i" d="M0 0h32v48H0z"/><path id="j" d="M0 0h4v48H0z"/><path id="k" d="M10 8h16v8H10z"/><path id="l" d="M0 8h8v48H0z"/><path id="m" d="M0 52h8v4H0z"/><path id="n" d="M0 8l4-8 4 8"/><path id="p" d="M0 0h28v16H0z"/></defs><g fill="none" fill-rule="evenodd"><ellipse cx="80" cy="130" fill="#B3BEF1" opacity=".5" rx="70" ry="15"/><g transform="translate(20 52)"><use fill="#CD9157" xlink:href="#a"/><path stroke="#010A37" d="M60.5 16.5h7V.5h-31v16h7v-9h17v9z"/></g><g transform="translate(20 52)"><use fill="#CD9157" xlink:href="#b"/><path stroke="#010A37" d="M4.5 20.5h95v63h-95z"/></g><g transform="translate(20 52)"><use fill="#6F451F" xlink:href="#c"/><path stroke="#010A37" d="M.5 12.5h103v39H.5z"/></g><g transform="translate(20 52)"><use fill="#FDD991" xlink:href="#d"/><path stroke="#010A37" d="M44.5 44.5h15v3h-15z"/></g><g transform="translate(20 52)"><use fill="#FDD991" xlink:href="#e"/><path stroke="#010A37" d="M76.5 44.5h7v15h-7z"/></g><g transform="translate(20 52)"><use fill="#FDD991" xlink:href="#f"/><path stroke="#010A37" d="M20.5 44.5h7v15h-7z"/></g><g transform="translate(20 52)"><use fill="#FFE6B3" xlink:href="#g"/><path stroke="#010A37" d="M20.5 56.5h7v3h-7z"/></g><g transform="translate(20 52)"><use fill="#FFE6B3" xlink:href="#h"/><path stroke="#010A37" d="M76.5 56.5h7v3h-7z"/></g><g transform="translate(116 88)"><use fill="#5E6EBF" xlink:href="#i"/><path stroke="#010A37" d="M.5.5h31v47H.5z"/></g><g transform="translate(116 88)"><use fill="#223274" xlink:href="#j"/><path stroke="#010A37" d="M.5.5h3v47h-3z"/></g><g transform="translate(116 88)"><use fill="#B3BEF1" xlink:href="#k"/><path stroke="#010A37" d="M10.5 8.5h15v7h-15z"/></g><g transform="rotate(-90 108 28)"><use fill="#FDD991" xlink:href="#l"/><path stroke="#010A37" d="M.5 8.5h7v47h-7z"/></g><g transform="rotate(-90 108 28)"><use fill="#FB8B8A" xlink:href="#m"/><path stroke="#010A37" d="M.5 52.5h7v3h-7z"/></g><g transform="rotate(-90 108 28)"><mask id="o" fill="#fff"><use xlink:href="#n"/></mask><use fill="#F3F4FA" xlink:href="#n"/><path stroke="#010A37" d="M.809 7.5h6.382L4 1.118.809 7.5z"/><circle cx="4" r="4" fill="#010A37" mask="url(#o)"/></g><g transform="translate(16 120)"><use fill="#53C1BD" xlink:href="#p"/><path stroke="#010A37" d="M.5.5h27v15H.5z"/><path fill="#F3F4FA" d="M13 4h12v2H13zm0 4h6v2h-6z"/><circle cx="7" cy="8" r="4" fill="#5E6EBF"/></g></g></svg>