<svg xmlns="http://www.w3.org/2000/svg" viewBox="0 0 160 96"><defs><linearGradient id="a" x1="50%" x2="50%" y1="0%" y2="100%"><stop offset="0%" stop-color="#80FFF7" stop-opacity="0"/><stop offset="100%" stop-color="#49FEED"/></linearGradient><linearGradient id="b" x1="50%" x2="50%" y1="0%" y2="100%"><stop offset="0%" stop-color="#80FFF7" stop-opacity="0"/><stop offset="100%" stop-color="#6539D9"/></linearGradient></defs><g fill="none" fill-rule="evenodd"><path fill="#2B2737" d="M0 0h160v96H0z"/><path fill="#FFF" d="M118 94a2 2 0 110-4 2 2 0 010 4zm-12 0a2 2 0 110-4 2 2 0 010 4zm-12 0a2 2 0 110-4 2 2 0 010 4zm-12 0a2 2 0 110-4 2 2 0 010 4zm36-12a2 2 0 110-4 2 2 0 010 4zm-12 0a2 2 0 110-4 2 2 0 010 4zm-12 0a2 2 0 110-4 2 2 0 010 4zm-12 0a2 2 0 110-4 2 2 0 010 4zm36-12a2 2 0 110-4 2 2 0 010 4zm-12 0a2 2 0 110-4 2 2 0 010 4zm-12 0a2 2 0 110-4 2 2 0 010 4zm-12 0a2 2 0 110-4 2 2 0 010 4zm36-12a2 2 0 110-4 2 2 0 010 4zm-12 0a2 2 0 110-4 2 2 0 010 4zm-12 0a2 2 0 110-4 2 2 0 010 4zm-12 0a2 2 0 110-4 2 2 0 010 4zm36-12a2 2 0 110-4 2 2 0 010 4zm-12 0a2 2 0 110-4 2 2 0 010 4zm-12 0a2 2 0 110-4 2 2 0 010 4zm-12 0a2 2 0 110-4 2 2 0 010 4zm36-12a2 2 0 110-4 2 2 0 010 4zm-12 0a2 2 0 110-4 2 2 0 010 4zm-12 0a2 2 0 110-4 2 2 0 010 4zm-12 0a2 2 0 110-4 2 2 0 010 4zm36-12a2 2 0 110-4 2 2 0 010 4zm-12 0a2 2 0 110-4 2 2 0 010 4zm-12 0a2 2 0 110-4 2 2 0 010 4zm-12 0a2 2 0 110-4 2 2 0 010 4zm36-12a2 2 0 110-4 2 2 0 010 4zm-12 0a2 2 0 110-4 2 2 0 010 4zm-12 0a2 2 0 110-4 2 2 0 010 4zm-12 0a2 2 0 110-4 2 2 0 010 4z" opacity=".5"/><path fill="#6A3EE6" d="M19 75h80v15H19z"/><path fill="url(#a)" d="M140 0h20v96h-20z"/><path stroke="#FFF" stroke-width="15" d="M57.5 37.5h115v115h-115z" opacity=".8"/><path fill="url(#b)" d="M120 0h20v96h-20z"/><path fill="#6A3EE6" d="M19 55h80v15H19z" opacity=".5"/><circle cx="26" cy="37" r="6" stroke="#FFF" stroke-width="2"/><circle cx="26" cy="37" r="12" stroke="#FFF" stroke-width="4"/></g></svg>