<svg xmlns="http://www.w3.org/2000/svg" xmlns:xlink="http://www.w3.org/1999/xlink" viewBox="0 0 160 96"><defs><circle id="a" cx="48" cy="48" r="48"/><path id="b" d="M0 0c0 26.51 21.49 48 48 48S96 26.51 96 0"/></defs><g fill="none" fill-rule="evenodd"><path fill="#F5CA5B" d="M0 0h160v48H0z"/><g transform="translate(32)"><use fill="#564E46" xlink:href="#a"/><circle cx="48" cy="48" r="38" stroke="#5C8C80" stroke-width="20"/><circle cx="48" cy="48" r="43" stroke="#A3CFAF" stroke-width="10"/></g><path fill="#DCE45E" d="M0 48h160v48H0z"/><g transform="translate(32 48)"><mask id="c" fill="#fff"><use xlink:href="#b"/></mask><use fill="#DCE45E" xlink:href="#b"/><path fill="#564E46" d="M0 0h96v4H0zm0 8h96v4H0zm0 8h96v4H0zm0 8h96v4H0z" mask="url(#c)" opacity=".5"/><path fill="#F5CA5B" d="M0 32h96v4H0zm0 8h96v8H0z" mask="url(#c)" opacity=".5"/><circle cy="48" r="48" fill="#5C8C80" mask="url(#c)"/><circle cx="96" cy="48" r="48" fill="#5C8C80" mask="url(#c)"/></g><circle cx="80" cy="88" r="8" fill="#F5CA5B"/></g></svg>