<svg xmlns="http://www.w3.org/2000/svg" viewBox="0 0 160 96"><defs><linearGradient id="a" x1="50%" x2="50%" y1="0%" y2="100%"><stop offset="0%" stop-color="#FF74B7"/><stop offset="100%" stop-color="#FF4081"/></linearGradient><linearGradient id="b" x1="50%" x2="50%" y1="0%" y2="100%"><stop offset="0%" stop-color="#CB4FD8"/><stop offset="100%" stop-color="#9C27B0"/></linearGradient><linearGradient id="c" x1="50%" x2="50%" y1="0%" y2="100%"><stop offset="0%" stop-color="#00DFEC"/><stop offset="100%" stop-color="#00BCD4"/></linearGradient><linearGradient id="d" x1="50%" x2="50%" y1="0%" y2="100%"><stop offset="0%" stop-color="#FFE211"/><stop offset="100%" stop-color="#FFC107"/></linearGradient><linearGradient id="e" x1="50%" x2="50%" y1="0%" y2="100%"><stop offset="0%" stop-color="#FF9047"/><stop offset="100%" stop-color="#FF5722"/></linearGradient><linearGradient id="f" x1="50%" x2="50%" y1="0%" y2="100%"><stop offset="0%" stop-color="#07D4FA"/><stop offset="100%" stop-color="#03A9F4"/></linearGradient></defs><g fill="none"><path fill="url(#a)" d="M14.286 22.042l.952-1.725 41.333 41.975-.761.958h-.953L14.286 22.042zM59.048 63.25H20.952V69h38.096v-5.75z" transform="translate(40 14)"/><path fill="url(#b)" d="M65.524 47.342l-.953 1.725L23.43 6.708 24 5.75h1.143l40.38 41.592zM55.81 63.25L59.048 69 80 34.5h-6.667L55.81 63.25z" transform="translate(40 14)"/><path fill="url(#c)" d="M59.048 5.75H20.952V0h38.096v5.75zm-3.238 0h-1.143L14.095 46.767l.953 1.725L56.38 6.708l-.571-.958z" transform="translate(40 14)"/><path fill="url(#d)" d="M24 5.75L4.762 37.567 0 34.5 20.952 0 24 5.75zm32.381.767l-.571-.767h-3.24L16.381 18.4l-1.524 2.492L56.381 6.517z" transform="translate(40 14)"/><path fill="url(#e)" d="M24.19 63.25L20.952 69 0 34.5h6.667L24.19 63.25zm.572-15.333V5.75H24l-1.143 1.917v40.25h-8L16 49.833h6.857v11.309l1.333 2.108h.572V49.833H64l1.143-1.916H24.762z" transform="translate(40 14)"/><path fill="url(#f)" d="M64.19 19.55L23.81 62.675l.38.575h1.715l39.047-41.783L54.667 63.25H56l1.143-1.917 9.524-37.95-2.477-3.833zm9.143 14.95L55.81 5.75 59.048 0 80 34.5h-6.667z" transform="translate(40 14)"/></g></svg>