<svg xmlns="http://www.w3.org/2000/svg" xmlns:xlink="http://www.w3.org/1999/xlink" viewBox="0 0 160 160"><defs><path id="a" d="M0 24h64v80H0z"/><path id="b" d="M0 32h64v8H0z"/><path id="c" d="M4 11h4v18H4z"/><path id="d" d="M9 11h4v18H9z"/><path id="e" d="M14 11h4v18h-4z"/><path id="f" d="M19 11h4v18h-4z"/><path id="g" d="M24 11h4v18h-4z"/><path id="h" d="M0 28h32v4H0z"/><path id="i" d="M16 0l16 12H0z"/><path id="o" d="M32 12l8 32H24z"/><path id="p" d="M16 60h32a8 8 0 018 8H8a8 8 0 018-8z"/><path id="q" d="M32 32c-6.627 0-12-5.373-12-12S25.373 8 32 8s12 5.373 12 12-5.373 12-12 12zm0-4a8 8 0 100-16 8 8 0 000 16z"/><path id="r" d="M0 0h32v40H0z"/><circle id="j" cx="32" cy="32" r="32"/><circle id="l" cx="32" cy="68" r="16"/><circle id="m" cx="32" cy="32" r="32"/></defs><g fill="none" fill-rule="evenodd"><ellipse cx="80" cy="130" fill="#B3BEF1" opacity=".5" rx="70" ry="15"/><g transform="translate(64 32)"><use fill="#FDD991" xlink:href="#a"/><path stroke="#010A37" d="M.5 24.5h63v79H.5z"/></g><path stroke="#010A37" d="M80.5 56.5h31V48c0-8.56-6.94-15.5-15.5-15.5-8.56 0-15.5 6.94-15.5 15.5v8.5z"/><g transform="translate(64 32)"><use fill="#53C1BD" xlink:href="#b"/><path stroke="#010A37" d="M.5 32.5h63v7H.5z"/></g><g transform="translate(80 85)"><use fill="#53C1BD" xlink:href="#c"/><path stroke="#010A37" d="M4.5 11.5h3v17h-3z"/></g><g transform="translate(80 85)"><use fill="#53C1BD" xlink:href="#d"/><path stroke="#010A37" d="M9.5 11.5h3v17h-3z"/></g><g transform="translate(80 85)"><use fill="#53C1BD" xlink:href="#e"/><path stroke="#010A37" d="M14.5 11.5h3v17h-3z"/></g><g transform="translate(80 85)"><use fill="#53C1BD" xlink:href="#f"/><path stroke="#010A37" d="M19.5 11.5h3v17h-3z"/></g><g transform="translate(80 85)"><use fill="#53C1BD" xlink:href="#g"/><path stroke="#010A37" d="M24.5 11.5h3v17h-3z"/></g><g transform="translate(80 85)"><use fill="#53C1BD" xlink:href="#h"/><path stroke="#010A37" d="M.5 28.5h31v3H.5z"/></g><g transform="translate(80 85)"><use fill="#53C1BD" xlink:href="#i"/><path stroke="#010A37" d="M16 .625L1.5 11.5h29L16 .625z"/></g><g transform="translate(16 68)"><circle cx="44" cy="16" r="4" fill="#FFF"/><mask id="k" fill="#fff"><use xlink:href="#j"/></mask><use fill="#F3F4FA" fill-opacity=".8" xlink:href="#j"/><g mask="url(#k)"><use fill="#1D848C" xlink:href="#l"/><circle cx="32" cy="68" r="15.5" stroke="#010A37"/></g><mask id="n" fill="#fff"><use xlink:href="#m"/></mask><circle cx="32" cy="32" r="31.5" stroke="#010A37"/><g mask="url(#n)"><use fill="#53C1BD" xlink:href="#o"/><path stroke="#010A37" d="M32 14.062L24.64 43.5h14.72L32 14.062z"/></g><use fill="#FB8B8A" xlink:href="#p"/><path stroke="#010A37" d="M8.516 67.5h46.968a7.5 7.5 0 00-7.484-7H16a7.5 7.5 0 00-7.484 7z"/><path stroke="#010A37" stroke-linecap="round" d="M32 52V36"/></g><g transform="translate(106 96)"><use fill="#F3F4FA" xlink:href="#q"/><path stroke="#010A37" d="M32 31.5c6.351 0 11.5-5.149 11.5-11.5S38.351 8.5 32 8.5 20.5 13.649 20.5 20 25.649 31.5 32 31.5zm0-3a8.5 8.5 0 110-17 8.5 8.5 0 010 17z"/></g><g transform="translate(106 96)"><use fill="#F3F4FA" xlink:href="#r"/><path stroke="#010A37" d="M.5.5h31v39H.5z"/></g><path fill="#010A37" d="M112 122v-12h-2a1 1 0 110-2h6a1 1 0 110 2h-2v12h2a1 1 0 010 2h-6a1 1 0 010-2h2z"/><path fill="#FB8B8A" d="M127 124l-6.504-7.434A5 5 0 01127 109a5 5 0 016.504 7.567L127 124z"/></g></svg>