<svg xmlns="http://www.w3.org/2000/svg" xmlns:xlink="http://www.w3.org/1999/xlink" viewBox="0 0 160 160"><defs><circle id="f" cx="20" cy="20" r="16"/><circle id="g" cx="20" cy="20" r="4"/><circle id="i" cx="34" cy="34" r="2"/><circle id="l" cx="8" cy="8" r="8"/><circle id="m" cx="4" cy="4" r="4"/><path id="b" d="M0 0h88v60H0z"/><path id="c" d="M4.571 0H27.43L32 17H0z"/><path id="e" d="M0 0h40v56H0z"/><path id="h" d="M8 40h24v4H8z"/><path id="k" d="M16 24c0-7.732-3.582-14-8-14s-8 6.268-8 14h16z"/><rect id="a" width="96" height="80" rx="5"/><rect id="d" width="48" height="8" x="24" y="87" rx="4"/><rect id="j" width="44" height="24" rx="2"/></defs><g fill="none" fill-rule="evenodd"><ellipse cx="80" cy="130" fill="#B3BEF1" opacity=".5" rx="70" ry="15"/><g transform="translate(32 40)"><use fill="#F3F4FA" xlink:href="#a"/><rect width="95" height="79" x=".5" y=".5" stroke="#010A37" rx="5"/><circle cx="48" cy="72" r="4" fill="#010A37"/><g transform="translate(4 4)"><use fill="#FFF" xlink:href="#b"/><path stroke="#010A37" d="M.5.5h87v59H.5z"/></g><path d="M36 24h24v24H36z"/><path fill="#010A37" fill-rule="nonzero" d="M37 33.131l2 2.058c4.97-5.113 13.03-5.113 18 0l2-2.058c-6.07-6.245-15.92-6.245-22 0zm8 8.23l3 3.087 3-3.087a4.154 4.154 0 00-6 0zm-4-4.115l2 2.058a6.935 6.935 0 0110 0l2-2.058c-3.86-3.971-10.13-3.971-14 0z"/><g transform="translate(32 79)"><use fill="#B3BEF1" xlink:href="#c"/><path stroke="#010A37" d="M4.955.5l-4.303 16h30.696L27.045.5H4.955z"/></g><use fill="#B3BEF1" xlink:href="#d"/><rect width="49" height="9" x="23.5" y="86.5" stroke="#010A37" rx="4.5"/></g><g transform="translate(96 80)"><use fill="#53C1BD" xlink:href="#e"/><path stroke="#010A37" d="M.5.5h39v55H.5z"/><use fill="#F3F4FA" xlink:href="#f"/><circle cx="20" cy="20" r="15.5" stroke="#010A37"/><use fill="#1D848C" xlink:href="#g"/><circle cx="20" cy="20" r="3.5" stroke="#010A37"/><circle cx="3" cy="3" r="1" fill="#010A37"/><circle cx="37" cy="3" r="1" fill="#010A37"/><circle cx="37" cy="53" r="1" fill="#010A37"/><use fill="#1D848C" xlink:href="#h"/><path stroke="#010A37" d="M8.5 40.5h23v3h-23z"/><path stroke="#010A37" stroke-linecap="round" stroke-width="2" d="M33 33l-9-9"/><use fill="#1D848C" xlink:href="#i"/><circle cx="34" cy="34" r="1.5" stroke="#010A37"/></g><g transform="translate(20 112)"><use fill="#F3F4FA" xlink:href="#j"/><rect width="43" height="23" x=".5" y=".5" stroke="#010A37" rx="2"/><path fill="#010A37" d="M7 3h34v18H7z"/><circle cx="4" cy="12" r="2" fill="#8996A2"/></g><g transform="translate(88 112)"><use fill="#FDD991" xlink:href="#k"/><path stroke="#010A37" d="M15.495 23.5c-.149-7.258-3.519-13-7.495-13S.654 16.242.505 23.5h14.99z"/><use fill="#FFE6B3" xlink:href="#l"/><circle cx="8" cy="8" r="7.5" stroke="#010A37"/><g transform="translate(4 3)"><use fill="#8996A2" xlink:href="#m"/><circle cx="4" cy="4" r="3.5" stroke="#010A37"/><circle cx="4" cy="4" r="2" fill="#010A37"/></g><circle cx="8" cy="13" r="1" fill="#FB8B8A"/></g></g></svg>