<svg xmlns="http://www.w3.org/2000/svg" xmlns:xlink="http://www.w3.org/1999/xlink" viewBox="0 0 160 160"><defs><circle id="h" cx="36" cy="36" r="36"/><circle id="j" cx="36" cy="36" r="12"/><circle id="k" cx="36" cy="36" r="8"/><circle id="m" cx="16" cy="36" r="8"/><circle id="n" cx="16" cy="12" r="8"/><circle id="o" cx="40" cy="36" r="8"/><circle id="p" cx="40" cy="12" r="8"/><circle id="q" cx="64" cy="36" r="8"/><circle id="r" cx="64" cy="12" r="8"/><circle id="s" cx="88" cy="36" r="8"/><circle id="t" cx="88" cy="12" r="8"/><circle id="y" cx="36" cy="28" r="16"/><circle id="z" cx="36" cy="28" r="12"/><circle id="A" cx="36" cy="28" r="4"/><path id="a" d="M8 31h8v10H8z"/><path id="b" d="M8 40h8v60a4 4 0 11-8 0V40z"/><path id="c" d="M0 16V0h24v16l-8 16H8z"/><path id="d" d="M16 8h-4v2a2 2 0 11-4 0V8H0V0h24v8h-4v6a2 2 0 11-4 0V8z"/><path id="e" d="M2 15h4v10H2z"/><path id="f" d="M2 24h4v62a2 2 0 11-4 0V24z"/><path id="g" d="M0 0h8L6 16H2z"/><path id="w" d="M0 16h72v28a4 4 0 01-4 4H4a4 4 0 01-4-4V16z"/><path id="x" d="M50 0h12a2 2 0 012 2v3H48V2a2 2 0 012-2z"/><path id="B" d="M8 8h8v4H8z"/><rect id="l" width="104" height="48" rx="5"/><rect id="u" width="72" height="48" rx="4"/></defs><g fill="none" fill-rule="evenodd" transform="translate(8 32)"><ellipse cx="72" cy="98" fill="#B3BEF1" opacity=".5" rx="70" ry="15"/><g transform="translate(96)"><use fill="#F6FAFF" xlink:href="#a"/><path stroke="#010A37" d="M8.5 31.5h7v9h-7z"/></g><g transform="translate(96)"><use fill="#CD9157" xlink:href="#b"/><path stroke="#010A37" d="M8.5 40.5V100a3.5 3.5 0 107 0V40.5h-7z"/></g><g transform="translate(96)"><use fill="#FFD15D" xlink:href="#c"/><path stroke="#010A37" d="M.5 15.882L8.309 31.5h7.382L23.5 15.882V.5H.5v15.382z"/></g><g transform="translate(96)"><use fill="#53C1BD" xlink:href="#d"/><path stroke="#010A37" d="M23.5 7.5v-7H.5v7h8V10a1.5 1.5 0 003 0V7.5h5V14a1.5 1.5 0 003 0V7.5h4z"/></g><g transform="translate(118 16)"><use fill="#F6FAFF" xlink:href="#e"/><path stroke="#010A37" d="M2.5 15.5h3v9h-3z"/></g><g transform="translate(118 16)"><use fill="#CD9157" xlink:href="#f"/><path stroke="#010A37" d="M2.5 24.5V86a1.5 1.5 0 003 0V24.5h-3z"/></g><g transform="translate(118 16)"><use fill="#FB8B8A" xlink:href="#g"/><path stroke="#010A37" d="M.566.5l1.875 15H5.56L7.434.5H.566z"/></g><g transform="translate(0 32)"><mask id="i" fill="#fff"><use xlink:href="#h"/></mask><use fill="#4A4A4A" xlink:href="#h"/><circle cx="36" cy="36" r="35.5" stroke="#010A37"/><path fill="#FFF" d="M24 0h24L36 36z" mask="url(#i)" opacity=".25"/><path fill="#FFF" d="M24 36h24L36 72z" mask="url(#i)" opacity=".25" transform="matrix(1 0 0 -1 0 108)"/><g mask="url(#i)"><use fill="#223274" xlink:href="#j"/><circle cx="36" cy="36" r="11.5" stroke="#010A37"/></g><g mask="url(#i)"><use fill="#5E6EBF" xlink:href="#k"/><circle cx="36" cy="36" r="7.5" stroke="#010A37"/></g></g><g transform="rotate(90 44 44)"><use fill="#F6FAFF" xlink:href="#l"/><rect width="103" height="47" x=".5" y=".5" stroke="#010A37" rx="5"/></g><g transform="rotate(90 44 44)"><use fill="#FB8B8A" xlink:href="#m"/><circle cx="16" cy="36" r="7.5" stroke="#010A37"/></g><g transform="rotate(90 44 44)"><use fill="#FABCBB" xlink:href="#n"/><circle cx="16" cy="12" r="7.5" stroke="#010A37"/></g><g transform="rotate(90 44 44)"><use fill="#5E6EBF" xlink:href="#o"/><circle cx="40" cy="36" r="7.5" stroke="#010A37"/></g><g transform="rotate(90 44 44)"><use fill="#B3BEF1" xlink:href="#p"/><circle cx="40" cy="12" r="7.5" stroke="#010A37"/></g><g transform="rotate(90 44 44)"><use fill="#1D848C" xlink:href="#q"/><circle cx="64" cy="36" r="7.5" stroke="#010A37"/></g><g transform="rotate(90 44 44)"><use fill="#53C1BD" xlink:href="#r"/><circle cx="64" cy="12" r="7.5" stroke="#010A37"/></g><g transform="rotate(90 44 44)"><use fill="#FDD991" xlink:href="#s"/><circle cx="88" cy="36" r="7.5" stroke="#010A37"/></g><g transform="rotate(90 44 44)"><use fill="#FFE6B3" xlink:href="#t"/><circle cx="88" cy="12" r="7.5" stroke="#010A37"/></g><g transform="translate(64 56)"><mask id="v" fill="#fff"><use xlink:href="#u"/></mask><use fill="#FABCBB" xlink:href="#u"/><rect width="71" height="47" x=".5" y=".5" stroke="#010A37" rx="4"/><g mask="url(#v)"><use fill="#5E6EBF" xlink:href="#w"/><path stroke="#010A37" d="M.5 16.5V44A3.5 3.5 0 004 47.5h64a3.5 3.5 0 003.5-3.5V16.5H.5z"/></g></g><g transform="translate(64 52)"><use fill="#53C1BD" xlink:href="#x"/><path stroke="#010A37" d="M48.5 4.5h15V2A1.5 1.5 0 0062 .5H50A1.5 1.5 0 0048.5 2v2.5z"/></g><g transform="translate(64 52)"><use fill="#53C1BD" xlink:href="#y"/><circle cx="36" cy="28" r="15.5" stroke="#010A37"/></g><g transform="translate(64 52)"><use fill="#B3BEF1" xlink:href="#z"/><circle cx="36" cy="28" r="11.5" stroke="#010A37"/></g><g transform="translate(64 52)"><use fill="#F3F4FA" xlink:href="#A"/><circle cx="36" cy="28" r="3.5" stroke="#010A37"/></g><g transform="translate(64 52)"><use fill="#FDD991" xlink:href="#B"/><path stroke="#010A37" d="M8.5 8.5h7v3h-7z"/></g></g></svg>